<svg
        version="1.1"
        id="Layer_1"
        xmlns="http://www.w3.org/2000/svg"
        xmlns:xlink="http://www.w3.org/1999/xlink"
        viewBox="0 0 64 64"
        width="64"
        height="64"
>
    <path
            d="M32,10 C25,10 20,15 20,22 C20,26 22,30 26,32 C22,33 18,37 18,42 C18,48 23,52 29,52 C35,52 40,48 40,42 C40,37 36,33 32,32 C36,30 38,26 38,22 C38,15 35,10 32,10 Z"
            fill="#66ccff"
            stroke="#000000"
            stroke-width="2"
    />
    <circle cx="32" cy="20" r="2" fill="#000000"/>
    <path
            d="M32,30 C28,30 26,32 26,34 C26,36 28,38 32,38 C36,38 38,36 38,34 C38,32 36,30 32,30 Z"
            fill="#ffffff"
            stroke="#000000"
            stroke-width="2"
    />
    <path
            d="M26,42 C24,42 22,44 22,46 C22,48 24,50 26,50 C28,50 30,48 30,46 C30,44 28,42 26,42 Z"
            fill="#66ccff"
            stroke="#000000"
            stroke-width="2"
    />
    <path
            d="M38,42 C36,42 34,44 34,46 C34,48 36,50 38,50 C40,50 42,48 42,46 C42,44 40,42 38,42 Z"
            fill="#66ccff"
            stroke="#000000"
            stroke-width="2"
    />
    <path
            d="M32,50 L32,54 L30,54 L30,50"
            fill="#66ccff"
            stroke="#000000"
            stroke-width="2"
    />
</svg>
