<?xml version="1.0" encoding="UTF-8" standalone="no"?>
<svg
   xmlns:dc="http://purl.org/dc/elements/1.1/"
   xmlns:cc="http://creativecommons.org/ns#"
   xmlns:rdf="http://www.w3.org/1999/02/22-rdf-syntax-ns#"
   xmlns:svg="http://www.w3.org/2000/svg"
   xmlns="http://www.w3.org/2000/svg"
   viewBox="0 0 755.90533 755.90533"
   height="755.90533"
   width="755.90533"
   xml:space="preserve"
   id="svg2"
   version="1.1"><metadata
     id="metadata8"><rdf:RDF><cc:Work
         rdf:about=""><dc:format>image/svg+xml</dc:format><dc:type
           rdf:resource="http://purl.org/dc/dcmitype/StillImage" /></cc:Work></rdf:RDF></metadata><defs
     id="defs6"><clipPath
       id="clipPath18"
       clipPathUnits="userSpaceOnUse"><path
         id="path16"
         d="M 86.132,11.287 H 514.563 V 555.643 H 86.132 Z" /></clipPath></defs><g
     transform="matrix(1.3333333,0,0,-1.3333333,0,755.90533)"
     id="g10"><g
       id="g12"><g
         clip-path="url(#clipPath18)"
         id="g14"><g
           transform="translate(404.8095,409.3989)"
           id="g20"><path
             id="path22"
             style="fill:#4e7375;fill-opacity:1;fill-rule:nonzero;stroke:none"
             d="M 0,0 C -16.752,2.803 -28.059,18.655 -25.256,35.407 -22.453,52.159 -6.6,63.467 10.152,60.664 26.903,57.86 38.211,42.008 35.408,25.256 32.604,8.504 16.752,-2.804 0,0" /></g><g
           transform="translate(114.45,442.4624)"
           id="g24"><path
             id="path26"
             style="fill:#41616b;fill-opacity:1;fill-rule:nonzero;stroke:none"
             d="M 0,0 C -16.337,0.713 -29.003,14.535 -28.289,30.872 -27.576,47.21 -13.754,59.875 2.583,59.162 18.92,58.448 31.586,44.627 30.872,28.289 30.159,11.952 16.337,-0.714 0,0" /></g><g
           transform="translate(308.2065,462.7231)"
           id="g28"><path
             id="path30"
             style="fill:#63857e;fill-opacity:1;fill-rule:nonzero;stroke:none"
             d="M 0,0 C -16.753,2.803 -28.061,18.655 -25.257,35.408 -22.454,52.161 -6.6,63.47 10.152,60.667 26.905,57.863 38.213,42.01 35.41,25.257 32.606,8.504 16.753,-2.804 0,0" /></g><g
           transform="translate(114.6984,363.4936)"
           id="g32"><path
             id="path34"
             style="fill:#41616b;fill-opacity:1;fill-rule:nonzero;stroke:none"
             d="M 0,0 C -13.195,0.576 -23.425,11.74 -22.849,24.936 -22.272,38.13 -11.109,48.36 2.086,47.784 15.281,47.208 25.511,36.044 24.935,22.85 24.359,9.654 13.195,-0.576 0,0" /></g><g
           transform="translate(114.8862,293.4145)"
           id="g36"><path
             id="path38"
             style="fill:#41616b;fill-opacity:1;fill-rule:nonzero;stroke:none"
             d="m 0,0 c -10.82,0.473 -19.208,9.627 -18.736,20.447 0.473,10.82 9.627,19.208 20.447,18.736 C 12.531,38.71 20.919,29.556 20.447,18.736 19.974,7.917 10.82,-0.472 0,0" /></g><g
           transform="translate(363.8899,259.7876)"
           id="g40"><path
             id="path42"
             style="fill:#c4da8e;fill-opacity:1;fill-rule:nonzero;stroke:none"
             d="m 0,0 c -11.389,0.498 -20.219,10.133 -19.722,21.522 0.497,11.39 10.133,20.22 21.523,19.723 C 13.19,40.748 22.02,31.111 21.523,19.722 21.025,8.333 11.389,-0.497 0,0" /></g><g
           transform="translate(115.1362,234.4512)"
           id="g44"><path
             id="path46"
             style="fill:#41616b;fill-opacity:1;fill-rule:nonzero;stroke:none"
             d="m 0,0 c -7.657,0.334 -13.593,6.812 -13.259,14.47 0.335,7.656 6.813,13.592 14.47,13.258 C 8.868,27.393 14.804,20.916 14.469,13.259 14.135,5.601 7.657,-0.334 0,0" /></g><g
           transform="translate(162.1017,243.9804)"
           id="g48"><path
             id="path50"
             style="fill:#97a990;fill-opacity:1;fill-rule:nonzero;stroke:none"
             d="m 0,0 c -8.06,0.352 -14.308,7.171 -13.957,15.23 0.352,8.061 7.171,14.31 15.231,13.957 C 9.334,28.836 15.583,22.016 15.231,13.956 14.879,5.896 8.06,-0.352 0,0" /></g><g
           transform="translate(265.6729,191.0244)"
           id="g52"><path
             id="path54"
             style="fill:#97a990;fill-opacity:1;fill-rule:nonzero;stroke:none"
             d="m 0,0 c -7.197,0.314 -12.777,6.403 -12.463,13.601 0.314,7.197 6.404,12.777 13.601,12.463 C 8.335,25.75 13.915,19.66 13.601,12.463 13.287,5.265 7.197,-0.314 0,0" /></g><g
           transform="translate(475.0386,335.0845)"
           id="g56"><path
             id="path58"
             style="fill:#c4da8e;fill-opacity:1;fill-rule:nonzero;stroke:none"
             d="M 0,0 C -16.753,2.804 -28.061,18.656 -25.257,35.409 -22.454,52.162 -6.6,63.471 10.152,60.667 26.905,57.863 38.213,42.01 35.41,25.257 32.606,8.504 16.753,-2.804 0,0" /></g><g
           transform="translate(115.2089,175.4482)"
           id="g60"><path
             id="path62"
             style="fill:#41616b;fill-opacity:1;fill-rule:nonzero;stroke:none"
             d="M 0,0 C -6.738,0.294 -11.961,5.995 -11.667,12.733 -11.373,19.471 -5.672,24.694 1.065,24.4 7.803,24.106 13.027,18.405 12.732,11.667 12.438,4.93 6.738,-0.294 0,0" /></g><g
           transform="translate(313.6678,217.9358)"
           id="g64"><path
             id="path66"
             style="fill:#97a990;fill-opacity:1;fill-rule:nonzero;stroke:none"
             d="m 0,0 c -6.297,0.275 -11.179,5.603 -10.904,11.9 0.275,6.297 5.603,11.178 11.9,10.903 C 7.293,22.529 12.174,17.201 11.9,10.904 11.625,4.607 6.297,-0.275 0,0" /></g><g
           transform="translate(115.3413,64.813)"
           id="g68"><path
             id="path70"
             style="fill:#41616b;fill-opacity:1;fill-rule:nonzero;stroke:none"
             d="m 0,0 c -5.062,0.221 -8.987,4.504 -8.766,9.566 0.221,5.062 4.504,8.987 9.566,8.766 C 5.863,18.111 9.787,13.828 9.566,8.766 9.345,3.704 5.062,-0.221 0,0" /></g><g
           transform="translate(115.3413,118.9704)"
           id="g72"><path
             id="path74"
             style="fill:#41616b;fill-opacity:1;fill-rule:nonzero;stroke:none"
             d="m 0,0 c -5.062,0.221 -8.987,4.504 -8.766,9.566 0.221,5.062 4.504,8.987 9.566,8.766 C 5.863,18.111 9.787,13.828 9.566,8.766 9.345,3.704 5.062,-0.221 0,0" /></g><g
           transform="translate(201.9137,67.6089)"
           id="g76"><path
             id="path78"
             style="fill:#41616b;fill-opacity:1;fill-rule:nonzero;stroke:none"
             d="m 0,0 c -4.982,0.923 -8.273,5.711 -7.349,10.693 0.923,4.982 5.711,8.273 10.693,7.349 C 8.326,17.119 11.617,12.331 10.693,7.349 9.77,2.367 4.982,-0.924 0,0" /></g><g
           transform="translate(114.3854,11.3887)"
           id="g80"><path
             id="path82"
             style="fill:#41616b;fill-opacity:1;fill-rule:nonzero;stroke:none"
             d="m 0,0 c -5.011,0.749 -8.467,5.418 -7.718,10.43 0.749,5.011 5.419,8.467 10.43,7.718 C 7.724,17.399 11.179,12.729 10.43,7.718 9.681,2.706 5.011,-0.749 0,0" /></g><g
           transform="translate(198.6901,494.5522)"
           id="g84"><path
             id="path86"
             style="fill:#97a990;fill-opacity:1;fill-rule:nonzero;stroke:none"
             d="M 0,0 C -16.752,2.803 -28.059,18.655 -25.256,35.407 -22.453,52.159 -6.6,63.467 10.152,60.664 26.903,57.86 38.211,42.008 35.408,25.256 32.604,8.504 16.752,-2.804 0,0" /></g><g
           transform="translate(159.475,38.4324)"
           id="g88"><path
             id="path90"
             style="fill:#41616b;fill-opacity:1;fill-rule:nonzero;stroke:none"
             d="m 0,0 c -4.982,0.923 -8.273,5.711 -7.349,10.693 0.923,4.982 5.711,8.273 10.693,7.349 C 8.326,17.119 11.617,12.331 10.693,7.349 9.77,2.367 4.982,-0.924 0,0" /></g><g
           transform="translate(251.3268,372.623)"
           id="g92"><path
             id="path94"
             style="fill:#97a990;fill-opacity:1;fill-rule:nonzero;stroke:none"
             d="m 0,0 c -8.06,0.352 -14.308,7.171 -13.957,15.23 0.352,8.061 7.171,14.31 15.231,13.957 C 9.334,28.836 15.583,22.016 15.231,13.956 14.879,5.896 8.06,-0.352 0,0" /></g><g
           transform="translate(299.5368,133.9716)"
           id="g96"><path
             id="path98"
             style="fill:#41616b;fill-opacity:1;fill-rule:nonzero;stroke:none"
             d="m 0,0 c -7.483,1.659 -12.204,9.07 -10.545,16.553 1.659,7.482 9.07,12.203 16.552,10.544 C 13.49,25.438 18.211,18.028 16.552,10.545 14.893,3.063 7.482,-1.659 0,0" /></g><g
           transform="translate(356.3948,166.7241)"
           id="g100"><path
             id="path102"
             style="fill:#41616b;fill-opacity:1;fill-rule:nonzero;stroke:none"
             d="m 0,0 c -10.82,0.473 -19.208,9.627 -18.736,20.447 0.473,10.82 9.627,19.208 20.447,18.736 C 12.531,38.71 20.919,29.556 20.447,18.736 19.974,7.917 10.82,-0.472 0,0" /></g><g
           transform="translate(483.6614,244.1733)"
           id="g104"><path
             id="path106"
             style="fill:#41616b;fill-opacity:1;fill-rule:nonzero;stroke:none"
             d="M 0,0 C -16.337,0.713 -29.003,14.535 -28.289,30.872 -27.576,47.21 -13.754,59.875 2.583,59.162 18.92,58.448 31.586,44.627 30.872,28.289 30.159,11.952 16.337,-0.714 0,0" /></g><g
           transform="translate(418.2001,303.4745)"
           id="g108"><path
             id="path110"
             style="fill:#97a990;fill-opacity:1;fill-rule:nonzero;stroke:none"
             d="m 0,0 c -8.06,0.352 -14.308,7.171 -13.957,15.23 0.352,8.061 7.171,14.31 15.231,13.957 C 9.334,28.836 15.583,22.016 15.231,13.956 14.879,5.896 8.06,-0.352 0,0" /></g><g
           transform="translate(222.1086,304.479)"
           id="g112"><path
             id="path114"
             style="fill:#c4da8e;fill-opacity:1;fill-rule:nonzero;stroke:none"
             d="m 0,0 c -11.389,0.498 -20.219,10.133 -19.722,21.522 0.497,11.39 10.133,20.22 21.523,19.723 C 13.19,40.748 22.02,31.111 21.523,19.722 21.025,8.333 11.389,-0.497 0,0" /></g><g
           transform="translate(197.3722,181.4321)"
           id="g116"><path
             id="path118"
             style="fill:#c4da8e;fill-opacity:1;fill-rule:nonzero;stroke:none"
             d="m 0,0 c -11.389,0.498 -20.219,10.133 -19.722,21.522 0.497,11.39 10.133,20.22 21.523,19.723 C 13.19,40.748 22.02,31.111 21.523,19.722 21.025,8.333 11.389,-0.497 0,0" /></g><g
           transform="translate(240.063,440.2627)"
           id="g120"><path
             id="path122"
             style="fill:#c4da8e;fill-opacity:1;fill-rule:nonzero;stroke:none"
             d="m 0,0 c -11.461,0.5 -20.346,10.197 -19.846,21.659 0.5,11.46 10.197,20.345 21.658,19.845 C 13.273,41.003 22.158,31.307 21.658,19.846 21.158,8.385 11.461,-0.5 0,0" /></g><g
           transform="translate(418.3163,203.4077)"
           id="g124"><path
             id="path126"
             style="fill:#41616b;fill-opacity:1;fill-rule:nonzero;stroke:none"
             d="M 0,0 C -13.195,0.576 -23.425,11.74 -22.849,24.936 -22.272,38.13 -11.109,48.36 2.086,47.784 15.281,47.208 25.511,36.044 24.935,22.85 24.359,9.654 13.195,-0.576 0,0" /></g><g
           transform="translate(293.2731,274.9502)"
           id="g128"><path
             id="path130"
             style="fill:#97a990;fill-opacity:1;fill-rule:nonzero;stroke:none"
             d="m 0,0 c -8.06,0.352 -14.308,7.171 -13.957,15.23 0.352,8.061 7.171,14.31 15.231,13.957 C 9.334,28.836 15.583,22.016 15.231,13.956 14.879,5.896 8.06,-0.352 0,0" /></g><g
           transform="translate(180.7781,392.8227)"
           id="g132"><path
             id="path134"
             style="fill:#c4da8e;fill-opacity:1;fill-rule:nonzero;stroke:none"
             d="m 0,0 c -11.389,0.498 -20.219,10.133 -19.722,21.522 0.497,11.39 10.133,20.22 21.523,19.723 C 13.19,40.748 22.02,31.111 21.523,19.722 21.025,8.333 11.389,-0.497 0,0" /></g><g
           transform="translate(368.7098,352.8759)"
           id="g136"><path
             id="path138"
             style="fill:#97a990;fill-opacity:1;fill-rule:nonzero;stroke:none"
             d="m 0,0 c -8.06,0.352 -14.308,7.171 -13.957,15.23 0.352,8.061 7.171,14.31 15.231,13.957 C 9.334,28.836 15.583,22.016 15.231,13.956 14.879,5.896 8.06,-0.352 0,0" /></g><g
           transform="translate(154.9064,161.7739)"
           id="g140"><path
             id="path142"
             style="fill:#799686;fill-opacity:1;fill-rule:nonzero;stroke:none"
             d="m 0,0 c -4.806,0.21 -8.533,4.276 -8.323,9.083 0.21,4.806 4.277,8.532 9.083,8.323 C 5.566,17.196 9.293,13.129 9.083,8.323 8.873,3.516 4.806,-0.21 0,0" /></g><g
           transform="translate(233.0617,251.4094)"
           id="g144"><path
             id="path146"
             style="fill:#799686;fill-opacity:1;fill-rule:nonzero;stroke:none"
             d="m 0,0 c -4.806,0.21 -8.533,4.276 -8.323,9.083 0.21,4.806 4.277,8.532 9.083,8.323 C 5.566,17.196 9.293,13.129 9.083,8.323 8.873,3.516 4.806,-0.21 0,0" /></g><g
           transform="translate(305.7915,416.6858)"
           id="g148"><path
             id="path150"
             style="fill:#799686;fill-opacity:1;fill-rule:nonzero;stroke:none"
             d="m 0,0 c -4.806,0.21 -8.533,4.276 -8.323,9.083 0.21,4.806 4.277,8.532 9.083,8.323 C 5.566,17.196 9.293,13.129 9.083,8.323 8.873,3.516 4.806,-0.21 0,0" /></g><g
           transform="translate(165.9902,327.6499)"
           id="g152"><path
             id="path154"
             style="fill:#799686;fill-opacity:1;fill-rule:nonzero;stroke:none"
             d="m 0,0 c -4.806,0.21 -8.533,4.276 -8.323,9.083 0.21,4.806 4.277,8.532 9.083,8.323 C 5.566,17.196 9.293,13.129 9.083,8.323 8.873,3.516 4.806,-0.21 0,0" /></g><g
           transform="translate(223.9599,140.1894)"
           id="g156"><path
             id="path158"
             style="fill:#799686;fill-opacity:1;fill-rule:nonzero;stroke:none"
             d="m 0,0 c -4.806,0.21 -8.533,4.276 -8.323,9.083 0.21,4.806 4.277,8.532 9.083,8.323 C 5.566,17.196 9.293,13.129 9.083,8.323 8.873,3.516 4.806,-0.21 0,0" /></g><g
           transform="translate(165.6066,101.5476)"
           id="g160"><path
             id="path162"
             style="fill:#799686;fill-opacity:1;fill-rule:nonzero;stroke:none"
             d="m 0,0 c -4.806,0.21 -8.533,4.276 -8.323,9.083 0.21,4.806 4.277,8.532 9.083,8.323 C 5.566,17.196 9.293,13.129 9.083,8.323 8.873,3.516 4.806,-0.21 0,0" /></g><g
           transform="translate(305.4247,346.0266)"
           id="g164"><path
             id="path166"
             style="fill:#799686;fill-opacity:1;fill-rule:nonzero;stroke:none"
             d="m 0,0 c -4.806,0.21 -8.533,4.276 -8.323,9.083 0.21,4.806 4.277,8.532 9.083,8.323 C 5.566,17.196 9.293,13.129 9.083,8.323 8.873,3.516 4.806,-0.21 0,0" /></g><g
           transform="translate(249.8532,97.7539)"
           id="g168"><path
             id="path170"
             style="fill:#41616b;fill-opacity:1;fill-rule:nonzero;stroke:none"
             d="M 0,0 C -6.738,0.294 -11.961,5.995 -11.667,12.733 -11.373,19.471 -5.672,24.694 1.065,24.4 7.803,24.106 13.027,18.405 12.732,11.667 12.438,4.93 6.738,-0.294 0,0" /></g></g></g></g></svg>